<svg id="Layer_1" data-name="Layer 1" xmlns="http://www.w3.org/2000/svg" viewBox="0 0 24 24"><defs><style>.cls-1{opacity:0.5;}</style></defs><title>competition_24px_black</title><g id="competition_24px" data-name="competition 24px" class="cls-1"><path id="Shape" d="M20.3,3a1.79,1.79,0,0,1,1.8,1.8V7.6a1.79,1.79,0,0,1-1.8,1.8H18.5v2.8a3.69,3.69,0,0,1-3.7,3.7l-1.5.1v3.7l3.4-.1v1.8H7.5V19.6h3.7V15.9H9.3a3.69,3.69,0,0,1-3.7-3.7V9.4H3.8A1.79,1.79,0,0,1,2,7.6V4.8A1.79,1.79,0,0,1,3.8,3ZM7.4,4.7v7.2a2.48,2.48,0,0,0,2.5,2.5h4.3a2.48,2.48,0,0,0,2.5-2.5V4.7ZM3.8,7.6H5.6V4.8H3.8Zm16.5,0V4.8H18.5V7.6Z"/></g></svg>